<?xml version="1.0" standalone="no"?>
<!DOCTYPE svg PUBLIC "-//W3C//DTD SVG 20010904//EN"
 "http://www.w3.org/TR/2001/REC-SVG-20010904/DTD/svg10.dtd">
<svg version="1.0" xmlns="http://www.w3.org/2000/svg"
 width="3847.000000pt" height="2005.000000pt" viewBox="0 0 3847.000000 2005.000000"
 preserveAspectRatio="xMidYMid meet">

<g transform="translate(0.000000,2005.000000) scale(0.100000,-0.100000)"
fill="#000000" stroke="none">
<path d="M16062 14587 c-128 -128 -232 -237 -232 -242 0 -11 20 -73 129 -408
33 -104 61 -193 61 -198 0 -6 -103 -8 -252 -7 l-253 3 -2 304 c-1 167 -6 307
-10 311 -4 4 -36 14 -71 23 -34 10 -230 62 -434 118 -204 55 -372 98 -374 96
-2 -2 8 -32 22 -68 14 -35 56 -143 93 -239 82 -211 297 -762 343 -880 l34 -85
1189 0 1190 0 63 155 c34 85 92 229 128 320 36 91 83 208 104 260 102 249 220
549 220 562 0 3 -12 3 -27 -2 -16 -4 -210 -60 -433 -124 -223 -64 -420 -121
-437 -127 l-33 -11 0 -309 0 -309 -255 0 c-147 0 -255 4 -255 9 0 5 57 150
126 322 80 199 123 318 118 326 -8 11 -490 413 -511 426 -5 3 -114 -99 -241
-226z"/>
<path d="M25996 14564 l-237 -237 91 -281 c50 -154 95 -291 100 -303 l10 -23
-255 0 -255 0 -2 306 -3 306 -120 33 c-66 18 -208 56 -315 85 -107 29 -251 68
-319 86 -69 19 -126 34 -128 34 -8 0 -1 -31 16 -71 10 -24 58 -145 106 -269
122 -312 183 -468 260 -665 37 -93 76 -194 87 -222 l19 -53 1189 0 1188 0 25
63 c13 34 66 166 117 292 319 796 380 949 377 951 -1 1 -151 -40 -332 -93
-182 -52 -377 -108 -435 -124 -58 -16 -117 -34 -132 -40 l-28 -11 0 -309 0
-309 -260 0 c-143 0 -260 2 -260 5 0 3 58 150 130 326 l129 322 -69 56 c-37
31 -141 117 -230 191 -89 74 -176 147 -194 162 l-33 28 -237 -236z"/>
<path d="M15120 13010 l0 -220 1190 0 1190 0 0 220 0 220 -1190 0 -1190 0 0
-220z"/>
<path d="M25050 12990 l0 -220 1190 0 1190 0 0 220 0 220 -1190 0 -1190 0 0
-220z"/>
<path d="M22920 12690 c-510 -6 -538 -7 -605 -27 -100 -31 -141 -50 -215 -98
-200 -130 -320 -300 -375 -532 -15 -62 -16 -265 -11 -2298 3 -1226 9 -2596 12
-3044 l7 -813 74 -34 c41 -19 78 -34 82 -34 4 0 23 14 42 32 45 42 876 856
1147 1123 117 115 265 260 329 321 l116 111 -8 2644 c-4 1454 -8 2645 -10
2647 -6 7 -58 7 -585 2z"/>
<path d="M24767 12688 c-3 -7 -12 -30 -21 -50 l-16 -38 187 -212 c251 -284
273 -310 273 -317 0 -3 -15 -22 -33 -41 -17 -19 -50 -57 -72 -84 -22 -27 -86
-106 -143 -175 -57 -69 -118 -144 -135 -165 -50 -61 -368 -447 -483 -586 -56
-69 -161 -195 -231 -281 -70 -86 -149 -180 -174 -210 -25 -30 -101 -121 -169
-203 l-123 -148 6 -821 c4 -451 8 -822 11 -824 2 -2 20 16 41 39 21 24 128
135 238 247 l201 204 23 -29 c29 -36 370 -485 398 -524 11 -16 61 -81 110
-147 50 -65 140 -183 200 -263 60 -80 112 -147 115 -150 3 -3 100 -131 216
-285 433 -576 579 -770 585 -775 5 -5 126 -164 447 -590 85 -113 158 -209 162
-213 6 -7 117 116 175 194 27 36 130 163 147 180 7 8 54 63 103 124 95 116
124 151 140 169 6 6 42 49 80 96 73 89 77 94 148 178 24 29 57 76 73 105 26
46 29 62 29 137 0 70 -4 93 -24 129 -13 25 -28 50 -35 58 -17 19 -26 32 -86
113 -30 41 -59 81 -65 87 -5 7 -29 39 -53 70 -24 32 -427 571 -897 1198 -470
627 -855 1145 -855 1152 0 7 44 65 97 130 54 65 105 127 114 138 10 11 34 41
55 66 22 26 46 55 54 65 24 31 115 139 120 144 3 3 39 46 80 95 41 50 82 99
92 110 9 11 90 108 179 215 89 107 174 209 188 225 41 46 268 318 346 415 39
48 91 111 117 141 25 30 105 126 178 214 73 88 161 194 195 235 35 41 134 161
220 265 l157 190 -778 6 c-1435 11 -1901 10 -1907 -3z"/>
<path d="M10390 12674 c0 -3 25 -62 56 -132 115 -261 530 -1196 646 -1457 66
-148 144 -324 173 -390 29 -66 61 -140 73 -165 11 -25 48 -108 82 -185 34 -77
79 -178 100 -225 21 -47 57 -128 80 -180 23 -52 51 -114 61 -137 10 -23 19
-47 19 -52 0 -7 27 -11 69 -11 l68 0 68 163 c37 89 90 216 117 282 62 149 102
246 167 400 89 214 157 379 176 425 l18 45 1816 0 c1685 0 1824 1 1924 18 383
62 684 213 947 477 291 289 446 635 474 1053 l5 77 -3569 0 c-1964 0 -3570 -3
-3570 -6z"/>
<path d="M12864 10473 c-25 -5 -34 -22 -140 -283 -86 -214 -217 -535 -336
-825 -39 -93 -94 -228 -123 -300 -66 -161 -179 -438 -250 -610 -29 -71 -83
-204 -119 -295 -37 -91 -73 -178 -80 -195 -27 -59 -86 -213 -86 -222 0 -5 42
-108 94 -229 51 -120 171 -401 266 -624 95 -223 222 -520 283 -660 60 -140
118 -277 129 -304 10 -27 28 -66 39 -87 l19 -39 80 0 80 0 21 42 c11 22 27 57
34 77 7 20 24 61 38 91 14 30 64 145 111 255 134 317 433 1018 491 1155 82
191 230 541 244 577 l13 32 566 4 c608 5 608 5 815 61 380 104 743 369 953
698 148 230 254 560 254 790 l0 68 -962 2 c-636 2 -962 6 -961 13 1 6 74 188
162 405 109 271 155 397 147 402 -11 8 -1744 9 -1782 1z"/>
<path d="M18170 9510 l0 -260 1130 0 1130 0 0 260 0 260 -1130 0 -1130 0 0
-260z"/>
</g>
</svg>
